<svg width="28" height="28" viewBox="0 0 28 28" fill="none" xmlns="http://www.w3.org/2000/svg">
<g clip-path="url(#clip0_18_17)">
<path d="M19.9756 17.5467L10.0589 27.4634C9.09055 28.4317 7.52722 28.4317 6.55889 27.4634C6.32889 27.2336 6.14643 26.9609 6.02194 26.6606C5.89745 26.3603 5.83337 26.0384 5.83337 25.7134C5.83337 25.3883 5.89745 25.0664 6.02194 24.7661C6.14643 24.4659 6.32889 24.1931 6.55889 23.9634L16.4756 14.0467" stroke="#0C193A" stroke-width="2" stroke-linecap="round" stroke-linejoin="round"/>
<path d="M23.0555 21.0467L28.1422 15.96" stroke="#0C193A" stroke-width="2" stroke-linecap="round" stroke-linejoin="round"/>
<path d="M26.8706 17.1967L25.4123 15.7383C24.7123 15.0383 24.3273 14.105 24.3273 13.1133V12.11L21.1539 8.91333C20.5515 8.30738 19.8353 7.82642 19.0465 7.49807C18.2576 7.16973 17.4117 7.00046 16.5573 7H12.9756L14.0489 7.95667C14.8113 8.63262 15.4217 9.46249 15.84 10.3916C16.2583 11.3206 16.4749 12.3278 16.4756 13.3467V15.1667L18.8089 17.5H21.6906L24.3273 19.7283" stroke="#0C193A" stroke-width="2" stroke-linecap="round" stroke-linejoin="round"/>
</g>
<defs>
<clipPath id="clip0_18_17">
<rect width="28" height="28" fill="white"/>
</clipPath>
</defs>
</svg>
