<svg width="25" height="22" viewBox="0 0 25 22" fill="none" xmlns="http://www.w3.org/2000/svg">
<path d="M24.7964 8.33329L23.8142 7.36092C23.543 7.09236 23.1033 7.09236 22.832 7.36092L22.3411 7.84689L21.0868 6.6051C21.3311 5.68945 21.1024 4.67582 20.3771 3.95782L18.4132 2.0135C15.7013 -0.671166 11.3042 -0.671166 8.59192 2.0135L12.5203 3.95782V4.76348C12.5203 5.49265 12.8129 6.19218 13.3341 6.7078L15.467 8.81926C16.1922 9.53727 17.2161 9.76371 18.141 9.5218L19.3954 10.7636L18.9045 11.2496C18.6332 11.5181 18.6332 11.9534 18.9045 12.2219L19.8867 13.1943C20.158 13.4629 20.5976 13.4629 20.8689 13.1943L24.7973 9.30524C25.0677 9.03711 25.0677 8.60184 24.7964 8.33329ZM12.3519 7.68017C12.1913 7.52119 12.055 7.34545 11.9244 7.1667L0.852292 17.4005C-0.257524 18.4266 -0.287472 20.1586 0.785885 21.2217C1.85924 22.2847 3.60925 22.2551 4.64572 21.1559L14.9813 10.196C14.8094 10.0709 14.6384 9.94375 14.4847 9.79164L12.3519 7.68017Z" fill="#0C193A"/>
</svg>
